# xmcd CD database file
#
# Track frame offsets:
#	150
#	26336
#	47526
#	68934
#	88404
#	108601
#	127829
#	145316
#	165799
#	188684
#	211149
#	228144
#	250554
#	256556
#
# Disc length: 3744 seconds
#
# Revision: 0
# Processed by: cddbd v1.4b41PL1 Copyright (c) Steve Scherf et al.
# Submitted via: CD2WAV32(EN) R3.17
#
DISCID=a90e9e0e
DTITLE=SO PLUS - So Plush
DYEAR=1900
DGENRE=
TTITLE0=What You Do To Me
TTITLE1=Things I Heard Before
TTITLE2=It Ain't My Fault
TTITLE3=Yes
TTITLE4=He Loves Me
TTITLE5=I Don't Know You, You Don't Know Me
TTITLE6=The Fact That You Lied
TTITLE7=Broke The Rules feat. Da Brat
TTITLE8=Fire Burns feat. Keith Sweat
TTITLE9=More Than Life To Me
TTITLE10=Times Up
TTITLE11=No One Else
TTITLE12=Interlude
TTITLE13=Hatin' On Me
EXTD=
EXTT0=
EXTT1=
EXTT2=
EXTT3=
EXTT4=
EXTT5=
EXTT6=
EXTT7=
EXTT8=
EXTT9=
EXTT10=
EXTT11=
EXTT12=
EXTT13=
PLAYORDER=
